<svg xmlns="http://www.w3.org/2000/svg" width="200" height="200" version="1.0" viewBox="0 0 150 150">
  <path
    d="M54.5 1.2c-4 2.2-6.8 5.4-9.1 10.3-3.8 8.1-3.1 9.2 2.4 3.5 4.3-4.4 5.3-5 9-5s4.5.4 6.2 3.2l2 3.3-6.8 2.1c-3.7 1.1-7.9 2.8-9.5 3.8-1.9 1.3-4.8 1.9-9.6 2-5.8.1-8 .7-15.3 4.4C15.4 32.9 9 38.5 9 41.6c0 4.6 12.4 3.5 23.7-2.2 3.6-1.9 6.8-3.2 7-3 .2.1-3.5 4.5-8.2 9.6C18.7 59.9 14 70.7 14 86.3c0 15.6 5.1 27.7 16.6 39.5l7.1 7.4-2 4.8c-4.1 9.7-.9 12 16.8 12 12 0 16.9-1.1 18.6-4.1 1.3-2.6 6.5-2.6 7.9.1 1.5 2.8 7.1 4 19.3 4 13.7 0 17.7-1.4 17.7-6.2 0-1.8-.9-5-2-7l-2-3.8 6.8-6.7c11-11.1 16.5-23.8 16.6-38.4l.1-8.6 3 .1c3 .1 3 .1 2.8-5-.5-13.4-11.7-30.1-21.3-32.1-1.7-.3-3.6-2.1-5.4-4.9-2.2-3.5-7.5-8.6-12.5-12.1-1-.7 2.6-3.2 6.1-4.1 3.9-1.1 7.8.6 7.8 3.3 0 .8.5 1.7 1 2 .6.4 1-1.3 1-4.4 0-3.8-.5-5.6-2-7.1-3.9-3.9-18.8-1.9-25 3.4-1.2 1.1-2.7 1.1-7.2.3-5.4-1.1-5.7-1.3-7.9-5.8C71.2 2.7 61.4-2.6 54.5 1.2zM65 23.6c0 6.4 1.3 8.4 5.6 8.4 5 0 8.7-4.1 8.2-9.2-.4-4.2-.1-4.3 5.5-2.7 3.6 1 3.7 1.1 2.2 3.2-2.4 3.5-1.9 7.2 1.6 10.1 5 4.3 7.7 3.4 10.7-3.2l1.9-4.3 4.4 3.3c2.4 1.9 6 5.7 7.9 8.5 2.6 3.8 4.5 5.4 7.3 6.3 8.3 2.5 16.2 13.3 19.2 26.4 2.4 10.1 1 11-6.5 4-5.5-5.2-10.2-12-12-17.7-.6-2-1.5-3.7-2-3.7-.4 0-1 4.6-1.2 10.2-.4 11.4-1.5 14.8-7.5 21.8-2.1 2.5-4.1 3.9-5 3.6-.8-.3-1.2-.2-.8.3 1.2 2-12 9.1-21.8 11.7-2.9.8-8 1.4-11.5 1.4-6.6 0-13.8-2.2-12.7-4 .3-.5 0-.7-.8-.4-.8.3-1.8.1-2.1-.5-1.1-1.8 1.1-2.1 4.8-.6 1.9.8 4.1 1.5 4.8 1.5.7 0-1.1-1.1-4-2.3-2.9-1.2-8-4.2-11.4-6.7-3.3-2.5-6.6-4.5-7.2-4.5-.6 0-1.1-.8-1.1-1.7 0-.9-.4-2-.9-2.5s-.6-.2-.2.7c2.2 4.4-3-3.4-5.6-8.5-2.4-4.7-3.2-7.7-3.6-13.5l-.4-7.5 5.1-7.5c4.7-7 6.1-10 4.4-10-.3 0-2.6 1.2-5 2.6-8.9 5.2-23 8.3-24.8 5.5-1-1.8 5.5-7.8 12.2-11.4 7.7-4 11.7-5 18.6-4.8 3.3 0 5.8-.5 7.6-1.8 3.7-2.5 10.1-5 13.4-5 2.6-.1 2.7.1 2.7 4.5zM29.6 52.9c-2.1 10.7 3.5 25.5 14 36.7 5 5.3 7.4 11.2 7.4 18.1 0 4.9.5 5.2 3.6 2.2l2.3-2.2-.2 9.6-.2 9.5-5.8.4c-3.8.3-6.7 1.2-8.7 2.6l-2.9 2.2-3.5-3.1c-2-1.7-3.4-3.4-3.3-3.7.1-.4-.2-.8-.8-1-2.1-.7-5.5-4.7-5.1-5.9.3-.7 0-1.2-.7-1-.7.1-1.1-.6-1.1-1.5.1-1-.2-1.5-.7-1.3-1 .7-3.9-5-6.5-12.5-2.8-8.3-2.6-24.4.4-33.2C19.6 63.5 29 48 30.4 48c.1 0-.2 2.2-.8 4.9zm100 20.4 4.6 5.2-.5 10.5c-.3 7.5-1 12.1-2.6 16-2.9 7.6-7.8 15.3-9.3 14.4-.7-.5-.8-.3-.3.5 1 1.7-6.5 9.3-8.4 8.6-.9-.3-1.2-.3-.8.1.4.4.2 1.3-.4 2-.8 1-1.8.7-4.6-1.2s-4.9-2.4-9.5-2.4c-9.5 0-16 4.4-18.9 13-.9 2.4-1.7 3-3.9 3-2.4 0-3-.5-3.5-3.1-.4-1.8-2.7-5.1-5-7.5l-4.4-4.3 9.2-.4c8.6-.4 8.5-.4-1.5-.3-6.7.1-10.8-.3-10.8-.9 0-.5 1.2-3.5 2.6-6.5 2.5-5.2 2.7-5.4 3.5-3.1 2 5.2 4.2 9.1 5 9.1.6 0 .7-2.7.4-6.3-.8-7.9.5-10.2 3.5-6.4 2.7 3.3 4 3.4 4 .3 0-3.5 1.8-7.8 3-7.1.6.3.7-.1.4-.9-.4-1-.1-1.6.9-1.6.8 0 5.6-2 10.6-4.5 9.8-5 18.8-12.4 23.1-19.2 1.5-2.3 2.9-4 3.2-3.8.2.3.5-.3.5-1.3-.1-.9 0-4.9.1-8.7l.2-7 2.5 4.3c1.3 2.4 4.5 6.7 7.1 9.5zM55 95.4c-.7.7-3-.9-6.8-4.8l-5.7-5.8 6.7 4.8c4.5 3.2 6.4 5.2 5.8 5.8z" />
  <path
    d="M51 35.8c-2.3 1.2-4.3 3.5-5.8 6.4-3.1 6.1-2.3 10.7 2.8 16.2 3.3 3.5 4.3 4 9.5 4.4 10 .8 16.5-4.7 16.5-14 0-11.2-12.7-18.4-23-13zm15.1 2.5C77 45.6 72 61.4 58.9 61.2c-9.8-.2-16.1-9-12.5-17.5 3-7.3 12.9-10 19.7-5.4z" />
  <path
    d="M59 51.5c-2.6 3.2 1.3 8.1 4.8 5.9C67.2 55.2 66 50 62 50c-1 0-2.3.7-3 1.5zM85 39.2c-13.6 7-11 25 4.1 28.3 7 1.6 15.7-3.9 18-11.3 3.6-12.1-10.4-23-22.1-17zm15.6 3.3c6.6 5.1 6.7 14.9.1 19.9-6.6 5-14.2 4.2-19.7-2-10.4-11.9 6.8-27.6 19.6-17.9z" />
  <path
    d="M83.6 54.9c-3.4 3.8 2.6 8.5 6.2 4.9 1.6-1.6 1.5-3.3-.4-5.2-2.1-2.1-3.7-2-5.8.3zM115.1 71.2c-.8 1.8-4.6 6.4-8.5 10.3-3.9 3.8-5.7 6-4.1 4.8 6-4.3 15-15.2 14.3-17.3-.2-.6-.9.5-1.7 2.2zM64.2 71.2c-1.7 1.7-1.5 4.3.6 6.1 2.3 2.1 3.6 2.1 5.1.3 2.4-2.8-3.2-8.9-5.7-6.4zM74.1 73.6c-3.5 4.5.5 8.7 4.2 4.6 2-2.2 2.2-4.3.5-6-1.7-1.7-2.4-1.5-4.7 1.4zM96.4 89.6c-1.8 1.4-1.8 1.5.4.4 1.2-.6 2.2-1.3 2.2-1.5 0-.8-.5-.6-2.6 1.1zM86.5 94.1c-3.8 1.5-6.5 2.8-5.8 2.9 1.6 0 11.6-3.9 12.8-5.1 1.2-1.2 1.2-1.2-7 2.2zM75.8 97.7c.6.2 1.8.2 2.5 0 .6-.3.1-.5-1.3-.5-1.4 0-1.9.2-1.2.5zM68.8 98.7c1.2.2 3 .2 4 0 .9-.3-.1-.5-2.3-.4-2.2 0-3 .2-1.7.4zM66.8 100.7c.6.2 1.8.2 2.5 0 .6-.3.1-.5-1.3-.5-1.4 0-1.9.2-1.2.5zM73.8 100.7c.7.3 1.6.2 1.9-.1.4-.3-.2-.6-1.3-.5-1.1 0-1.4.3-.6.6zM34 79.5c0 1.8 6.1 10.2 10.2 14l4.3 4-4.2-4.5c-2.2-2.5-5.5-6.7-7.2-9.4-1.7-2.8-3.1-4.6-3.1-4.1zM18 99.7c0 2 15.4 16.7 20 19.1 2.5 1.2 3.7 1.7 2.6 1-8-5.5-13.9-10.5-17.1-14.5-5.4-6.8-5.5-6.9-5.5-5.6zM45 122.5c1.4.8 3 1.4 3.5 1.4.6 0-.1-.6-1.5-1.4-1.4-.8-2.9-1.4-3.5-1.4-.5 0 .1.6 1.5 1.4zM115 84.2c-1.9 3.4-6.2 8.6-9.5 11.6s-4.6 4.6-2.9 3.4c4.3-3 10.6-10 13.9-15.6 1.5-2.6 2.6-4.8 2.4-5-.2-.2-2 2.3-3.9 5.6zM130.7 81.7c-.9 5.1-.2 5.3 1.1.3.5-2.2.6-4 .2-4-.4 0-1 1.7-1.3 3.7zM127.3 92c-1.2 2.8-1.9 5-1.7 5 .7 0 4.6-9.1 4.2-9.6-.2-.2-1.4 1.9-2.5 4.6zM121.4 102.1c-1.5 2.3-5.5 6.6-8.9 9.7-3.3 3-4.6 4.6-2.9 3.4 3.5-2.4 12.9-12.3 14.5-15.3 1.7-3.3.3-2.1-2.7 2.2zM93.5 104c-2.7 1.7-4.6 3-4.1 3 1.1 0 9.6-4.9 9.6-5.5 0-.7 0-.7-5.5 2.5zM84.5 108c-1.3.6-1.5.9-.5.9.8 0 2.2-.4 3-.9 1.8-1.2.2-1.2-2.5 0zM100.5 120c-2.7 1.7-4.6 3-4.1 3 1.1 0 9.6-4.9 9.6-5.5 0-.7 0-.7-5.5 2.5zM90 124.5c-1.9.7-2.8 1.4-2 1.4.8 0 2.9-.6 4.5-1.4 3.9-1.7 2.1-1.8-2.5 0zM82.8 126.7c.6.2 1.8.2 2.5 0 .6-.3.1-.5-1.3-.5-1.4 0-1.9.2-1.2.5z" />
</svg>
